<svg width="259" height="153" viewBox="0 0 259 153" version="1.1" xmlns="http://www.w3.org/2000/svg" xmlns:xlink="http://www.w3.org/1999/xlink">
<title>Group 2.4</title>
<desc>Created using Figma</desc>
<g id="Canvas" transform="translate(-7606 -1635)">
<g id="Group 2.4">
<g id="g16">
<g id="g18">
<g id="path34">
<use xlink:href="#path0_fill" transform="matrix(0.133333 0 0 -0.133333 7709.63 1711.31)" fill="#333333"/>
</g>
</g>
</g>
<g id="g36">
<g id="g38">
<g id="path54">
<use xlink:href="#path1_fill" transform="matrix(0.133333 0 0 -0.133333 7606.06 1787.63)" fill="#333333"/>
</g>
</g>
</g>
<g id="g76">
<g id="g78">
<g id="path94">
<use xlink:href="#path2_fill" transform="matrix(0.133333 0 0 -0.133333 7709.63 1787.63)" fill="#333333"/>
</g>
</g>
</g>
<g id="Subtract">
<use xlink:href="#path3_fill" transform="translate(7606 1635.63)" fill="#333333"/>
</g>
</g>
</g>
<defs>
<path id="path0_fill" d="M 582.632 572.337C 261.394 572.337 -3.00373e-05 315.557 -3.00373e-05 -9.83612e-06L 388.394 -9.83612e-06C 388.394 105.219 475.491 190.742 582.632 190.742C 689.743 190.742 776.835 105.169 776.835 -9.83612e-06L 1165.23 -9.83612e-06C 1165.23 315.557 903.84 572.337 582.632 572.337Z"/>
<path id="path1_fill" d="M 776.846 572.368C 776.846 467.113 689.744 381.56 582.644 381.56C 475.539 381.56 388.396 467.113 388.396 572.368L -1.50187e-06 572.368C -1.50187e-06 256.791 261.395 -1.2787e-05 582.644 -1.2787e-05C 903.888 -1.2787e-05 1165.24 256.791 1165.24 572.368L 776.846 572.368Z"/>
<path id="path2_fill" d="M 776.835 572.368C 776.835 467.113 689.743 381.56 582.632 381.56C 475.491 381.56 388.394 467.113 388.394 572.368L -3.00373e-05 572.368C -3.00373e-05 256.791 261.394 -1.2787e-05 582.632 -1.2787e-05C 903.84 -1.2787e-05 1165.23 256.791 1165.23 572.368L 776.835 572.368Z"/>
<path id="path3_fill" fill-rule="evenodd" d="M 121.963 13.642C 109.394 5.04504 94.1284 0 77.686 0C 34.8525 0 0 34.2374 0 76.3116L 51.7861 76.3116C 51.7861 62.2892 63.4053 50.8794 77.686 50.8794C 84.1528 50.8794 90.0732 53.2181 94.6157 57.0804L 121.963 13.642Z"/>
</defs>
</svg>
