<svg width="54" height="56" viewBox="0 0 54 56" version="1.1" xmlns="http://www.w3.org/2000/svg" xmlns:xlink="http://www.w3.org/1999/xlink">
<title>controls</title>
<desc>Created using Figma</desc>
<g id="Canvas" transform="translate(-7609 -3099)">
<g id="controls">
<g id="Group">
<g id="Vector">
<use xlink:href="#path0_fill" transform="translate(7609 3099)"/>
</g>
<g id="Vector">
<use xlink:href="#path1_fill" transform="translate(7609 3141)"/>
</g>
<g id="Vector">
<use xlink:href="#path2_fill" transform="translate(7609 3119.59)"/>
</g>
</g>
</g>
</g>
<defs>
<path id="path0_fill" d="M 7 14C 10.519 14 13.432 11.386 13.92 8L 53 8C 53.553 8 54 7.553 54 7C 54 6.447 53.553 6 53 6L 13.92 6C 13.432 2.614 10.519 0 7 0C 3.14 0 0 3.141 0 7C 0 10.859 3.14 14 7 14ZM 7 2C 9.757 2 12 4.243 12 7C 12 9.757 9.757 12 7 12C 4.243 12 2 9.757 2 7C 2 4.243 4.243 2 7 2Z"/>
<path id="path1_fill" d="M 47 0C 43.481 0 40.568 2.614 40.08 6L 1 6C 0.448 6 0 6.447 0 7C 0 7.553 0.448 8 1 8L 40.08 8C 40.568 11.386 43.481 14 47 14C 50.859 14 54 10.859 54 7C 54 3.141 50.859 0 47 0ZM 47 12C 44.243 12 42 9.757 42 7C 42 4.243 44.243 2 47 2C 49.757 2 52 4.243 52 7C 52 9.757 49.757 12 47 12Z"/>
<path id="path2_fill" d="M 53 6.414L 34.368 6.414C 33.972 2.812 30.913 4.42505e-07 27.207 4.42505e-07C 23.501 4.42505e-07 20.442 2.813 20.046 6.414L 1 6.414C 0.448 6.414 0 6.861 0 7.414C 0 7.967 0.448 8.414 1 8.414L 20.109 8.414C 20.686 11.814 23.645 14.414 27.207 14.414C 30.769 14.414 33.727 11.814 34.304 8.414L 53 8.414C 53.553 8.414 54 7.967 54 7.414C 54 6.861 53.553 6.414 53 6.414ZM 27.207 12.414C 24.336 12.414 22 10.078 22 7.207C 22 4.336 24.336 2 27.207 2C 30.078 2 32.414 4.336 32.414 7.207C 32.414 10.078 30.078 12.414 27.207 12.414Z"/>
</defs>
</svg>
