<svg width="28" height="22" viewBox="0 0 28 22" version="1.1" xmlns="http://www.w3.org/2000/svg" xmlns:xlink="http://www.w3.org/1999/xlink">
<title>Combined Shape</title>
<desc>Created using Figma</desc>
<g id="Canvas" transform="translate(-8307 -401)">
<g id="Combined Shape">
<use xlink:href="#path0_fill" transform="translate(8307.28 401)"/>
</g>
</g>
<defs>
<path id="path0_fill" fill-rule="evenodd" d="M 19.9438 21.9998C 19.9438 21.9998 19.1113 20.8736 18.417 19.8784C 21.4478 18.9094 22.605 16.7618 22.605 16.7618C 21.6562 17.4689 20.7539 17.9665 19.9438 18.307C 18.7871 18.857 17.6768 19.2236 16.5894 19.4332C 14.3682 19.9046 12.332 19.7736 10.5967 19.407C 9.27783 19.1189 8.14404 18.6998 7.1958 18.2808C 6.66357 18.0451 6.08496 17.757 5.50635 17.3904C 5.47168 17.3641 5.43701 17.3445 5.40234 17.3248C 5.36768 17.3052 5.33301 17.2856 5.29834 17.2594C 5.25195 17.2332 5.229 17.207 5.20557 17.1808C 4.78955 16.9189 4.55811 16.7356 4.55811 16.7356C 4.55811 16.7356 5.66846 18.8308 8.60693 19.826C 7.9126 20.8212 7.05664 21.9998 7.05664 21.9998C 1.94336 21.8164 0 18.0189 0 18.0189C 0 9.58573 3.33154 2.75016 3.33154 2.75016C 6.66357 -0.0783348 9.83301 0.000217507 9.83301 0.000217507L 10.0645 0.314488C 5.8999 1.67636 3.97949 3.7454 3.97949 3.7454C 3.97949 3.7454 4.48877 3.4311 5.34473 2.98587C 7.82031 1.75495 9.78711 1.41449 10.5967 1.33591L 10.6479 1.32605C 10.7646 1.30353 10.8687 1.28354 10.9902 1.28354C 12.4014 1.07401 13.998 1.02164 15.6636 1.23114C 17.8618 1.51923 20.2217 2.25257 22.6279 3.7454C 22.6279 3.7454 20.8003 1.78113 16.8667 0.419254L 17.1909 0.000217507C 17.1909 0.000217507 20.3604 -0.0783348 23.6924 2.75016C 23.6924 2.75016 27.0239 9.58573 27.0239 18.0189C 27.0239 18.0189 25.0571 21.8164 19.9438 21.9998ZM 9.83789 10.2445C 8.5293 10.2445 7.49658 11.5928 7.49658 13.2377C 7.49658 14.8825 8.55273 16.2308 9.83789 16.2308C 11.1465 16.2308 12.1792 14.8825 12.1792 13.2377C 12.2021 11.5928 11.1465 10.2445 9.83789 10.2445ZM 15.8735 13.2377C 15.8735 11.5928 16.9062 10.2445 18.2148 10.2445C 19.5234 10.2445 20.5562 11.5928 20.5562 13.2377C 20.5562 14.8825 19.5234 16.2308 18.2148 16.2308C 16.9297 16.2308 15.8735 14.8825 15.8735 13.2377Z"/>
</defs>
</svg>
