<svg width="42" height="56" viewBox="0 0 42 56" version="1.1" xmlns="http://www.w3.org/2000/svg" xmlns:xlink="http://www.w3.org/1999/xlink">
<title>id-card (1)</title>
<desc>Created using Figma</desc>
<g id="Canvas" transform="translate(-7614 -3462)">
<g id="id-card (1)">
<g id="Group">
<g id="Vector">
<use xlink:href="#path0_fill" transform="translate(7614 3462)" fill="#333333"/>
</g>
<g id="Vector">
<use xlink:href="#path1_fill" transform="translate(7623.43 3500.27)" fill="#333333"/>
</g>
<g id="Vector">
<use xlink:href="#path1_fill" transform="translate(7623.43 3504.93)" fill="#333333"/>
</g>
<g id="Vector">
<use xlink:href="#path1_fill" transform="translate(7623.43 3509.6)" fill="#333333"/>
</g>
<g id="Vector">
<use xlink:href="#path2_fill" transform="translate(7624.48 3477.87)" fill="#333333"/>
</g>
</g>
</g>
</g>
<defs>
<path id="path0_fill" d="M 38.764 3.73243L 26.1919 3.73243L 28.0777 1.49239C 28.4255 1.08079 28.3312 0.495577 27.8681 0.186639C 27.4061 -0.1223 26.7492 -0.0392319 26.4024 0.373309L 23.5727 3.73243L 18.4579 3.73243L 16.6517 0.515178C 16.3919 0.0541031 15.7633 -0.1307 15.2458 0.0979705C 14.7282 0.328508 14.5187 0.889451 14.7774 1.35053L 16.1153 3.73243L 3.14302 3.73243C 1.41017 3.73243 0 4.98872 0 6.53248L 0 53.2C 0 54.7437 1.41017 56 3.14302 56L 38.764 56C 40.4968 56 41.907 54.7437 41.907 53.2L 41.907 6.53248C 41.907 4.98872 40.4968 3.73243 38.764 3.73243ZM 39.8116 53.2C 39.8116 53.7152 39.3423 54.1333 38.764 54.1333L 3.14302 54.1333C 2.56471 54.1333 2.09535 53.7152 2.09535 53.2L 2.09535 6.53248C 2.09535 6.01727 2.56471 5.59913 3.14302 5.59913L 17.163 5.59913L 18.2107 7.46583C 17.3306 8.15091 16.7628 9.14493 16.7628 10.2659C 16.7628 12.3248 18.6423 13.9993 20.9535 13.9993C 23.2647 13.9993 25.1442 12.3248 25.1442 10.2659C 25.1442 8.20691 23.2647 6.53248 20.9535 6.53248C 20.6528 6.53248 20.3605 6.56328 20.0776 6.61742L 19.5056 5.59913L 38.764 5.59913C 39.3423 5.59913 39.8116 6.01727 39.8116 6.53248L 39.8116 53.2ZM 19.206 9.24013L 20.0158 10.6831C 20.2002 11.0107 20.57 11.1992 20.9545 11.1992C 21.1117 11.1992 21.272 11.1675 21.4218 11.1012C 21.9394 10.8707 22.1489 10.3097 21.8901 9.84867L 21.0834 8.41131C 22.1772 8.47198 23.0488 9.27653 23.0488 10.2659C 23.0488 11.2954 22.1091 12.1326 20.9535 12.1326C 19.7979 12.1326 18.8581 11.2954 18.8581 10.2659C 18.8581 9.88694 18.987 9.53507 19.206 9.24013Z"/>
<path id="path1_fill" d="M 22.0012 0L 1.04767 0C 0.468311 0 0 0.417207 0 0.933349C 0 1.44949 0.468311 1.8667 1.04767 1.8667L 22.0012 1.8667C 22.5805 1.8667 23.0488 1.44949 23.0488 0.933349C 23.0488 0.417207 22.5805 0 22.0012 0Z"/>
<path id="path2_fill" d="M 16.7628 18.667L 20.9535 18.667L 20.9535 0L 0 0L 0 18.667L 4.1907 18.667L 16.7628 18.667ZM 6.28605 16.8003C 6.28605 14.7413 8.16558 13.0669 10.4767 13.0669C 12.7879 13.0669 14.6674 14.7413 14.6674 16.8003L 6.28605 16.8003ZM 7.33372 8.40014C 7.33372 6.85638 8.74389 5.6001 10.4767 5.6001C 12.2096 5.6001 13.6198 6.85638 13.6198 8.40014C 13.6198 9.9439 12.2096 11.2002 10.4767 11.2002C 8.74389 11.2002 7.33372 9.9439 7.33372 8.40014ZM 2.09535 16.8003L 2.09535 1.8667L 18.8581 1.8667L 18.8581 16.8003L 16.7628 16.8003C 16.7628 14.7768 15.5485 13.0062 13.7382 12.0225C 14.9336 11.1657 15.7151 9.86924 15.7151 8.40014C 15.7151 5.8269 13.3652 3.7334 10.4767 3.7334C 7.58831 3.7334 5.23837 5.8269 5.23837 8.40014C 5.23837 9.86924 6.01994 11.1666 7.21533 12.0225C 5.40495 13.0062 4.1907 14.7768 4.1907 16.8003L 2.09535 16.8003Z"/>
</defs>
</svg>
