<svg width="65" height="66" viewBox="0 0 65 66" version="1.1" xmlns="http://www.w3.org/2000/svg" xmlns:xlink="http://www.w3.org/1999/xlink">
<title>auction</title>
<desc>Created using Figma</desc>
<g id="Canvas" transform="translate(-8210 -3453)">
<g id="auction">
<g id="Group">
<g id="Group">
<g id="Vector">
<use xlink:href="#path0_fill" transform="translate(8221.83 3453)"/>
</g>
</g>
</g>
<g id="Group">
<g id="Group">
<g id="Vector">
<use xlink:href="#path1_fill" transform="translate(8210 3501.99)"/>
</g>
</g>
</g>
<g id="Group">
<g id="Group">
<g id="Vector">
<use xlink:href="#path2_fill" transform="translate(8250.66 3509.45)"/>
</g>
</g>
</g>
<g id="Group">
<g id="Group">
<g id="Vector">
<use xlink:href="#path3_fill" transform="translate(8236.51 3492.67)"/>
</g>
</g>
</g>
<g id="Group">
<g id="Group">
<g id="Vector">
<use xlink:href="#path4_fill" transform="translate(8225.18 3494.71)"/>
</g>
</g>
</g>
<g id="Group">
<g id="Group">
<g id="Vector">
<use xlink:href="#path5_fill" transform="translate(8245.35 3494.71)"/>
</g>
</g>
</g>
</g>
</g>
<defs>
<path id="path0_fill" d="M 52.7148 40.0266L 31.9728 22.5005L 35.3225 19.3952C 35.5585 19.5453 35.8327 19.6212 36.1076 19.6212C 36.4636 19.6212 36.8193 19.4953 37.0909 19.2436L 40.864 15.7459C 41.407 15.2425 41.407 14.4263 40.864 13.9228L 26.2521 0.377437C 25.709 -0.125813 24.8287 -0.125813 24.2854 0.377437L 20.5123 3.87518C 20.0312 4.3212 19.9772 5.01252 20.3488 5.51448L 5.94879 18.8635C 5.40717 18.5192 4.66169 18.5691 4.18041 19.0151L 0.407261 22.5128C -0.135754 23.0162 -0.135754 23.8324 0.407261 24.336L 15.0192 37.8814C 15.28 38.1231 15.6336 38.259 16.0024 38.259C 16.3712 38.259 16.725 38.1231 16.9857 37.8814L 20.7588 34.3835C 21.24 33.9375 21.2939 33.2462 20.9224 32.7443L 24.2721 29.6392L 43.1785 48.8671C 43.4345 49.1273 43.7942 49.2793 44.174 49.2874C 44.1847 49.2877 44.1954 49.2878 44.2061 49.2878C 44.5745 49.2878 44.9282 49.1522 45.1894 48.9103L 52.7613 41.891C 53.0299 41.6419 53.1769 41.3018 53.1681 40.9496C 53.1595 40.5973 52.9956 40.2639 52.7148 40.0266ZM 25.2689 3.11205L 37.9142 14.8344L 36.1077 16.509L 23.4625 4.78668L 25.2689 3.11205ZM 16.0024 35.1467L 3.35706 23.4242L 5.16354 21.7496L 17.8089 33.4719L 16.0024 35.1467ZM 18.9731 30.905L 7.93257 20.6704L 22.2982 7.35359L 33.3387 17.5882L 18.9731 30.905ZM 44.2527 46.1323L 26.2407 27.8141L 30.0041 24.3255L 49.7649 41.0226L 44.2527 46.1323Z"/>
<path id="path1_fill" d="M 50.556 6.80135L 50.556 5.10958C 50.556 2.29221 48.0834 -1.47915e-06 45.0441 -1.47915e-06L 10.7568 -1.47915e-06C 7.71762 -1.47915e-06 5.24492 2.29208 5.24492 5.10958L 5.24492 6.80135C 2.32919 6.93103 -5.72894e-08 9.17065 -5.72894e-08 11.905C -5.72894e-08 14.7224 2.4727 17.0147 5.51205 17.0147L 50.2889 17.0147C 53.3282 17.0147 55.8009 14.7225 55.8009 11.905C 55.8008 9.17065 53.4716 6.93103 50.556 6.80135ZM 50.2889 14.4366L 5.51205 14.4366C 4.00621 14.4366 2.78113 13.3009 2.78113 11.905C 2.78113 10.5092 4.00607 9.37355 5.51205 9.37355L 6.63549 9.37355C 6.64008 9.37355 6.64453 9.3729 6.64911 9.3729C 6.65092 9.3729 6.65273 9.37316 6.65468 9.37316L 36.6116 9.37316C 37.3796 9.37316 38.0021 8.79605 38.0021 8.0841C 38.0021 7.37228 37.3796 6.79504 36.6116 6.79504L 8.02605 6.79504L 8.02605 5.10958C 8.02605 3.71379 9.25114 2.57812 10.7568 2.57812L 45.0441 2.57812C 46.5498 2.57812 47.7749 3.71379 47.7749 5.10958L 47.7749 8.08448C 47.7749 8.79643 48.3976 9.37355 49.1654 9.37355L 50.2889 9.37355C 51.7947 9.37355 53.0198 10.5092 53.0198 11.905C 53.0197 13.3009 51.7947 14.4366 50.2889 14.4366Z"/>
<path id="path2_fill" d="M 2.75317 1.03705C 2.73537 0.95455 2.70882 0.87334 2.67405 0.795996C 2.63929 0.717363 2.59618 0.642596 2.54612 0.572987C 2.4962 0.502088 2.43779 0.436347 2.37383 0.377051C 2.30986 0.317754 2.23881 0.263614 2.16247 0.217208C 2.08737 0.170802 2.00672 0.130839 1.9219 0.0986125C 1.83832 0.066386 1.75086 0.0418928 1.66186 0.025135C 1.48248 -0.0083806 1.29753 -0.0083806 1.11815 0.025135C 1.03055 0.0418928 0.942941 0.066386 0.858117 0.0986125C 0.774683 0.130839 0.69403 0.170802 0.61894 0.217208C 0.54232 0.263614 0.471402 0.317754 0.407436 0.377051C 0.1474 0.616816 1.86721e-06 0.949266 1.86721e-06 1.28842C 1.86721e-06 1.37337 0.0083446 1.45728 0.0262829 1.54107C 0.0444992 1.62228 0.0707776 1.7035 0.105542 1.782C 0.140306 1.85947 0.183415 1.93424 0.233475 2.00385C 0.284926 2.07475 0.34333 2.14049 0.407296 2.19979C 0.471262 2.25908 0.54218 2.31322 0.6188 2.36092C 0.69389 2.40733 0.774543 2.44728 0.857977 2.47951C 0.942801 2.51174 1.03041 2.53623 1.11801 2.55299C 1.20826 2.56975 1.30004 2.57748 1.39056 2.57748C 1.48081 2.57748 1.57273 2.56962 1.66172 2.55299C 1.75072 2.53623 1.83832 2.51174 1.92176 2.47951C 2.00644 2.44728 2.08723 2.40733 2.16233 2.36092C 2.23881 2.31322 2.30986 2.25908 2.37369 2.19979C 2.43765 2.14049 2.49606 2.07475 2.54598 2.00385C 2.59604 1.93424 2.63915 1.85947 2.67391 1.782C 2.70868 1.7035 2.7351 1.62228 2.75317 1.54107C 2.77125 1.45728 2.78099 1.37337 2.78099 1.28842C 2.78099 1.20463 2.77125 1.12071 2.75317 1.03705Z"/>
<path id="path3_fill" d="M 1.39056 4.09126e-07C 0.622555 4.09126e-07 5.77138e-07 0.577114 5.77138e-07 1.28906L 5.77138e-07 3.7919C 5.77138e-07 4.50372 0.622555 5.08097 1.39056 5.08097C 2.15843 5.08097 2.78113 4.50372 2.78113 3.7919L 2.78113 1.28906C 2.78113 0.577114 2.15843 4.09126e-07 1.39056 4.09126e-07Z"/>
<path id="path4_fill" d="M 4.85915 2.68112L 2.37393 0.377436C 1.83078 -0.125814 0.950276 -0.125814 0.407261 0.377436C -0.135754 0.880815 -0.135754 1.69705 0.407261 2.20056L 2.89247 4.50424C 3.16419 4.75587 3.5199 4.88181 3.87588 4.88181C 4.23186 4.88181 4.58771 4.75587 4.85915 4.50424C 5.40216 4.00086 5.40216 3.18463 4.85915 2.68112Z"/>
<path id="path5_fill" d="M 4.85901 0.377436C 4.31585 -0.125814 3.43563 -0.125814 2.89234 0.377436L 0.407262 2.68112C -0.135752 3.1845 -0.135752 4.00073 0.407262 4.50424C 0.678839 4.75587 1.03468 4.88181 1.39053 4.88181C 1.74637 4.88181 2.10236 4.75587 2.37394 4.50424L 4.85901 2.20056C 5.40202 1.69718 5.40202 0.880944 4.85901 0.377436Z"/>
</defs>
</svg>
