<svg width="54" height="56" viewBox="0 0 54 56" version="1.1" xmlns="http://www.w3.org/2000/svg" xmlns:xlink="http://www.w3.org/1999/xlink">
<title>list</title>
<desc>Created using Figma</desc>
<g id="Canvas" transform="translate(-8526 -3462)">
<g id="list">
<g id="Group">
<g id="Vector">
<use xlink:href="#path0_fill" transform="translate(8526 3462)"/>
</g>
<g id="Vector">
<use xlink:href="#path1_fill" transform="translate(8551.79 3465.87)"/>
</g>
<g id="Vector">
<use xlink:href="#path2_fill" transform="translate(8553.08 3480.38)"/>
</g>
<g id="Vector">
<use xlink:href="#path3_fill" transform="translate(8553.08 3484.25)"/>
</g>
<g id="Vector">
<use xlink:href="#path4_fill" transform="translate(8537.61 3479.42)"/>
</g>
<g id="Vector">
<use xlink:href="#path2_fill" transform="translate(8553.08 3490.06)"/>
</g>
<g id="Vector">
<use xlink:href="#path3_fill" transform="translate(8553.08 3493.93)"/>
</g>
<g id="Vector">
<use xlink:href="#path5_fill" transform="translate(8537.61 3489.09)"/>
</g>
<g id="Vector">
<use xlink:href="#path2_fill" transform="translate(8553.08 3499.74)"/>
</g>
<g id="Vector">
<use xlink:href="#path3_fill" transform="translate(8553.08 3503.61)"/>
</g>
<g id="Vector">
<use xlink:href="#path6_fill" transform="translate(8537.61 3498.77)"/>
</g>
</g>
</g>
</g>
<defs>
<path id="path0_fill" d="M 48.9224 3.87041L 39.616 3.87041C 39.1102 2.74678 37.693 1.93521 36.0269 1.93521L 32.0912 1.93521C 30.8967 0.729935 29.0044 0 27 0C 24.9956 0 23.1033 0.729935 21.9088 1.93521L 17.9731 1.93521C 16.307 1.93521 14.8898 2.74678 14.384 3.87041L 5.07761 3.87041C 2.27783 3.87041 0 5.57956 0 7.68035L 0 52.1901C 0 54.2909 2.27783 56 5.07761 56L 48.9224 56C 51.7222 56 54 54.2909 54 52.1901L 54 7.68035C 54 5.57956 51.7222 3.87041 48.9224 3.87041ZM 14.384 9.55508C 14.8898 10.6787 16.307 11.4903 17.9731 11.4903L 36.0269 11.4903C 37.693 11.4903 39.1102 10.6787 39.616 9.55508L 46.4239 9.55508L 46.4239 50.3153L 7.57612 50.3153L 7.57612 9.55508L 14.384 9.55508ZM 17.9731 3.74946L 22.5572 3.74946C 22.9876 3.74946 23.3855 3.57771 23.602 3.29856C 24.323 2.36917 25.5933 1.81425 27 1.81425C 28.4067 1.81425 29.6769 2.36917 30.3978 3.29856C 30.6145 3.57771 31.0124 3.74946 31.4427 3.74946L 36.0269 3.74946C 36.7824 3.74946 37.397 4.21064 37.397 4.77754L 37.397 8.64565C 37.397 8.6465 37.3969 8.64722 37.3969 8.64795C 37.3969 8.64831 37.3969 8.64867 37.3969 8.64916C 37.396 9.21545 36.7817 9.67603 36.0267 9.67603L 17.973 9.67603C 17.2186 9.67603 16.6048 9.21605 16.603 8.65025C 16.603 8.6494 16.6031 8.64867 16.6031 8.64795C 16.6031 8.64638 16.6028 8.6448 16.6028 8.64323L 16.6028 4.77754C 16.603 4.21064 17.2176 3.74946 17.9731 3.74946ZM 51.5821 52.1901C 51.5821 53.2905 50.3889 54.1857 48.9224 54.1857L 5.07761 54.1857C 3.61107 54.1857 2.41791 53.2905 2.41791 52.1901L 2.41791 7.68035C 2.41791 6.57994 3.61107 5.68467 5.07761 5.68467L 14.1851 5.68467L 14.1851 7.74082L 6.36716 7.74082C 5.69934 7.74082 5.15821 8.14685 5.15821 8.64795L 5.15821 51.2225C 5.15821 51.7236 5.69934 52.1296 6.36716 52.1296L 47.6328 52.1296C 48.3007 52.1296 48.8418 51.7236 48.8418 51.2225L 48.8418 8.64795C 48.8418 8.14685 48.3007 7.74082 47.6328 7.74082L 39.8149 7.74082L 39.8149 5.68467L 48.9224 5.68467C 50.3889 5.68467 51.5821 6.57994 51.5821 7.68035L 51.5821 52.1901Z"/>
<path id="path1_fill" d="M 1.20896 3.74946C 1.87678 3.74946 2.41791 3.34343 2.41791 2.84233L 2.41791 0.907127C 2.41791 0.40603 1.87678 0 1.20896 0C 0.541128 0 0 0.40603 0 0.907127L 0 2.84233C 0 3.34343 0.541128 3.74946 1.20896 3.74946Z"/>
<path id="path2_fill" d="M 1.20896 1.81425L 8.94627 1.81425C 9.6141 1.81425 10.1552 1.40822 10.1552 0.907127C 10.1552 0.40603 9.6141 0 8.94627 0L 1.20896 0C 0.541128 0 0 0.40603 0 0.907127C 0 1.40822 0.541128 1.81425 1.20896 1.81425Z"/>
<path id="path3_fill" d="M 1.20896 1.81425L 14.1045 1.81425C 14.7723 1.81425 15.3134 1.40822 15.3134 0.907127C 15.3134 0.40603 14.7723 0 14.1045 0L 1.20896 0C 0.541128 0 0 0.40603 0 0.907127C 0 1.40822 0.541128 1.81425 1.20896 1.81425Z"/>
<path id="path4_fill" d="M 4.2226 6.38654C 4.45875 6.56361 4.76824 6.65215 5.07757 6.65215C 5.3869 6.65215 5.6964 6.56361 5.93254 6.38654L 12.3803 1.54853C 12.8524 1.19414 12.8524 0.619871 12.3803 0.265608C 11.908 -0.0885349 11.1427 -0.0885349 10.6705 0.265608L 5.07757 4.46222L 2.06389 2.20081C 1.59159 1.84667 0.826241 1.84667 0.354104 2.20081C -0.118033 2.5552 -0.118033 3.12947 0.354104 3.48373L 4.2226 6.38654Z"/>
<path id="path5_fill" d="M 4.2226 6.38654C 4.45875 6.56361 4.76824 6.65215 5.07757 6.65215C 5.3869 6.65215 5.6964 6.56361 5.93254 6.38654L 12.3803 1.54853C 12.8524 1.19414 12.8524 0.619871 12.3803 0.265608C 11.908 -0.0885349 11.1427 -0.0885349 10.6705 0.265608L 5.07757 4.46222L 2.06389 2.20081C 1.59159 1.84667 0.826241 1.84667 0.354104 2.20081C -0.118033 2.5552 -0.118033 3.12947 0.354104 3.48373L 4.2226 6.38654Z"/>
<path id="path6_fill" d="M 4.2226 6.38654C 4.45875 6.56361 4.76824 6.65215 5.07757 6.65215C 5.3869 6.65215 5.6964 6.56361 5.93254 6.38654L 12.3803 1.54853C 12.8524 1.19414 12.8524 0.619869 12.3803 0.265606C 11.908 -0.0885367 11.1427 -0.0885367 10.6705 0.265606L 5.07757 4.46222L 2.06389 2.20081C 1.59159 1.84667 0.826241 1.84667 0.354104 2.20081C -0.118033 2.5552 -0.118033 3.12947 0.354104 3.48373L 4.2226 6.38654Z"/>
</defs>
</svg>
