<svg width="50" height="56" viewBox="0 0 50 56" version="1.1" xmlns="http://www.w3.org/2000/svg" xmlns:xlink="http://www.w3.org/1999/xlink">
<title>owner</title>
<desc>Created using Figma</desc>
<g id="Canvas" transform="translate(-8528 -3099)">
<g id="owner">
<g id="Group">
<g id="Group">
<g id="Vector">
<use xlink:href="#path0_fill" transform="matrix(-1 0 0 1 8578 3113)" fill="#333333"/>
</g>
</g>
</g>
<g id="Group">
<g id="Group">
<g id="Vector">
<use xlink:href="#path1_fill" transform="matrix(-1 0 0 1 8576.33 3099)" fill="#333333"/>
</g>
</g>
</g>
<g id="Group">
<g id="Group">
<g id="Vector">
<use xlink:href="#path2_fill" transform="matrix(-1 0 0 1 8539.67 3105.53)" fill="#333333"/>
</g>
</g>
</g>
<g id="Group">
<g id="Group">
<g id="Vector">
<use xlink:href="#path3_fill" transform="matrix(-1 0 0 1 8573.83 3122.33)" fill="#333333"/>
</g>
</g>
</g>
<g id="Group">
<g id="Group">
<g id="Vector">
<use xlink:href="#path4_fill" transform="matrix(-1 0 0 1 8534.67 3109.27)" fill="#333333"/>
</g>
</g>
</g>
</g>
</g>
<defs>
<path id="path0_fill" d="M 11.4225 5.8737L 6.42259 0.2737C 6.09676 -0.0912332 5.5701 -0.0912332 5.24427 0.2737L 0.244322 5.8737C 0.00599097 6.14063 -0.0656749 6.54197 0.0634904 6.89103C 0.192656 7.2401 0.496819 7.4669 0.833482 7.4669L 0.833482 15.8669C 0.833482 16.383 1.20681 16.8002 1.66681 16.8002L 10.0001 16.8002C 10.46 16.8002 10.8334 16.383 10.8334 15.8669L 10.8334 7.4669C 11.17 7.4669 11.4742 7.2401 11.6034 6.89103C 11.7325 6.54197 11.6609 6.14063 11.4225 5.8737ZM 5.83343 2.2533L 8.82173 5.60023L 2.84513 5.60023L 5.83343 2.2533ZM 9.16673 14.9336L 7.50008 14.9336L 7.50008 13.0669L 5.83343 13.0669L 5.83343 14.9336L 2.50013 14.9336L 2.50013 7.4669L 9.16673 7.4669L 9.16673 14.9336Z"/>
<path id="path1_fill" d="M 45.8328 32.6667L 37.0588 32.6667L 34.3355 27.1777L 34.6871 26.8632C 35.0046 26.5785 35.093 26.0783 34.8955 25.6807L 30.7288 17.2807C 30.7038 17.2303 30.6672 17.1929 30.6355 17.15C 30.6138 17.1201 30.5963 17.0865 30.5713 17.0604C 30.4988 16.9839 30.418 16.9195 30.3272 16.8765C 30.3172 16.8719 30.3063 16.8719 30.2963 16.8681C 30.2113 16.8317 30.1213 16.8112 30.0297 16.8075C 30.0188 16.8065 30.0105 16.8 29.9997 16.8L 28.3114 16.8C 30.1963 15.2189 31.463 12.7717 31.6363 9.98573C 31.6363 9.982 31.638 9.97827 31.6388 9.97453C 31.653 9.76173 31.6663 9.54893 31.6663 9.33333C 31.6663 4.18693 27.928 5.54413e-12 23.3331 5.54413e-12C 23.0498 5.54413e-12 22.7706 0.0168 22.4948 0.0476C 22.4564 0.0522667 22.4198 0.0606667 22.3823 0.0653333C 22.1389 0.0961333 21.8981 0.135333 21.6614 0.188533C 21.6506 0.191333 21.6406 0.194133 21.6298 0.196933C 18.9281 0.816667 16.7098 2.88493 15.6598 5.69333C 15.6582 5.698 15.6557 5.7036 15.654 5.70827C 15.569 5.936 15.494 6.16933 15.4257 6.4064C 15.4048 6.47733 15.3815 6.54733 15.3615 6.6192C 15.3182 6.78253 15.2832 6.9496 15.2473 7.11667C 15.2157 7.2604 15.1823 7.40133 15.1565 7.54787C 15.1407 7.64027 15.1315 7.73453 15.1182 7.82787C 15.0865 8.04253 15.0565 8.2572 15.0382 8.47653C 15.0382 8.47933 15.0373 8.4812 15.0373 8.484C 15.0373 8.48587 15.0382 8.48773 15.0373 8.48867C 15.0157 8.76773 14.9998 9.04867 14.9998 9.33333C 14.9998 12.3881 16.3232 15.0967 18.3548 16.8L 16.6665 16.8C 16.6557 16.8 16.6465 16.8065 16.6357 16.8065C 16.5457 16.8103 16.459 16.8308 16.3765 16.8653C 16.364 16.87 16.3507 16.87 16.3382 16.8756C 16.2482 16.9185 16.1673 16.982 16.0957 17.0585C 16.0698 17.0856 16.0532 17.1192 16.0307 17.15C 15.999 17.1929 15.9623 17.2303 15.9382 17.2797L 11.7715 25.6797C 11.574 26.0773 11.6615 26.5776 11.9799 26.8623L 12.3315 27.1768L 9.6074 32.6667L 0.833325 32.6667C 0.373329 32.6667 8.42403e-08 33.0839 8.42403e-08 33.6C 8.42403e-08 36.1732 1.86915 38.2667 4.16662 38.2667L 12.4999 38.2667C 12.8024 38.2667 13.0807 38.0837 13.2282 37.7869L 15.8332 32.5491L 15.8332 35.4667L 15.8332 55.0667C 15.8332 55.5828 16.2065 56 16.6665 56L 29.9997 56C 30.4597 56 30.833 55.5828 30.833 55.0667L 30.833 35.4667L 30.833 32.5491L 33.438 37.7869C 33.5855 38.0837 33.8638 38.2667 34.1663 38.2667L 42.4995 38.2667C 44.797 38.2667 46.6662 36.1732 46.6662 33.6C 46.6662 33.0839 46.2928 32.6667 45.8328 32.6667ZM 12.0107 36.4L 4.16662 36.4C 3.07997 36.4 2.15331 35.6197 1.80915 34.5333L 10.0974 34.5333C 10.3999 34.5333 10.6791 34.3495 10.8257 34.0527L 13.6507 28.3593L 13.9774 28.6515L 15.2823 29.8209L 12.0107 36.4ZM 15.8332 27.9244L 14.7015 26.9108L 13.9215 26.2117L 13.5707 25.8972L 15.8332 21.3351L 15.8332 27.9244ZM 16.7915 7.90907C 16.8098 7.8008 16.8357 7.69533 16.8582 7.58893C 16.8873 7.45267 16.9157 7.31547 16.9515 7.182C 16.9673 7.1204 16.9865 7.0616 17.004 7.00093C 17.059 6.8152 17.1165 6.6304 17.184 6.4512C 17.1898 6.43627 17.1948 6.42227 17.2007 6.40733C 17.9615 4.41373 19.4748 2.8644 21.3389 2.2092C 21.3473 2.2064 21.3548 2.2036 21.3631 2.2008C 21.5464 2.13733 21.7339 2.08507 21.9239 2.03933C 21.9573 2.03187 21.9898 2.0216 22.0231 2.01413C 22.1939 1.97587 22.3681 1.94787 22.5439 1.92453C 22.5889 1.91893 22.6331 1.9096 22.6789 1.90493C 22.8948 1.87973 23.1123 1.86667 23.3331 1.86667C 23.5623 1.86667 23.7881 1.87973 24.0114 1.90493C 24.0781 1.9124 24.1422 1.92827 24.2081 1.93853C 24.3631 1.96187 24.5181 1.98333 24.6697 2.01787C 24.7489 2.0356 24.8247 2.0636 24.9031 2.08413C 25.0381 2.12053 25.1747 2.15507 25.3064 2.2008C 25.3906 2.22973 25.4706 2.26893 25.5531 2.3016C 25.6747 2.35013 25.7981 2.39493 25.9164 2.45093C 26.0022 2.49107 26.0839 2.54147 26.1672 2.58533C 26.2772 2.64413 26.3897 2.69827 26.4964 2.7636C 26.5806 2.81493 26.6597 2.87373 26.7414 2.9288C 26.843 2.99693 26.9464 3.06133 27.0447 3.13507C 27.1247 3.1948 27.1989 3.26293 27.2755 3.3264C 27.3697 3.40387 27.4664 3.47853 27.5564 3.5616C 27.6314 3.63067 27.6997 3.70627 27.7722 3.77907C 27.8589 3.86587 27.9472 3.94987 28.0297 4.04133C 28.0989 4.11787 28.1614 4.20187 28.228 4.28213C 28.3064 4.37733 28.3864 4.4688 28.4605 4.56773C 28.523 4.65267 28.5797 4.7432 28.6389 4.83093C 28.708 4.93267 28.7797 5.03253 28.8447 5.13893C 28.9005 5.2304 28.9497 5.3284 29.0014 5.4236C 29.0614 5.53187 29.1239 5.63827 29.1789 5.75027C 29.2272 5.8492 29.268 5.9528 29.313 6.05453C 29.363 6.16933 29.4164 6.28133 29.4614 6.39893C 29.5014 6.50253 29.533 6.6108 29.5689 6.7172C 29.6097 6.8376 29.653 6.95707 29.688 7.08027C 29.7189 7.18947 29.7414 7.3024 29.768 7.4144C 29.798 7.53947 29.8305 7.6636 29.8547 7.79147C 29.8763 7.90533 29.8888 8.02293 29.9055 8.13867C 29.9238 8.2684 29.9463 8.39627 29.9588 8.52787C 29.9697 8.64453 29.9722 8.76307 29.9788 8.8816C 29.9855 9.00013 29.9938 9.11773 29.9947 9.2372C 28.2839 9.62827 26.5431 8.77147 25.6289 7.12227C 25.5089 6.90667 25.3164 6.75453 25.0947 6.70227C 25.0372 6.68733 24.9789 6.68173 24.9206 6.68173C 24.7556 6.68173 24.5931 6.7368 24.4539 6.84133C 23.1248 7.8456 21.3948 8.4 19.5831 8.4C 18.6223 8.4 17.6681 8.24133 16.7873 7.93893C 16.789 7.9296 16.7898 7.91933 16.7915 7.90907ZM 16.6898 9.84013C 17.6165 10.1164 18.5973 10.2667 19.5831 10.2667C 21.4273 10.2667 23.2131 9.77107 24.6981 8.85827C 25.7989 10.3385 27.4172 11.2 29.1664 11.2C 29.3764 11.2 29.5855 11.1664 29.7938 11.1403C 29.0697 14.3855 26.4522 16.8 23.3331 16.8C 19.8098 16.8 16.924 13.7209 16.6898 9.84013ZM 29.1664 54.1333L 24.1664 54.1333L 24.1664 41.0667L 22.4998 41.0667L 22.4998 54.1333L 17.4998 54.1333L 17.4998 36.4L 29.1664 36.4L 29.1664 54.1333ZM 29.1664 29.8667L 29.1664 34.5333L 17.4998 34.5333L 17.4998 29.8667L 17.4998 18.6667L 29.1664 18.6667L 29.1664 29.8667ZM 30.833 21.3351L 33.0955 25.8972L 32.7447 26.2117L 31.9638 26.9108L 30.833 27.9244L 30.833 21.3351ZM 42.4995 36.4L 34.6555 36.4L 31.3838 29.8219L 32.6888 28.6524L 33.0155 28.3603L 35.8405 34.0536C 35.9871 34.3495 36.2663 34.5333 36.5688 34.5333L 44.857 34.5333C 44.5129 35.6197 43.5862 36.4 42.4995 36.4Z"/>
<path id="path2_fill" d="M 11.6665 6.53333C 11.6665 2.9316 9.04991 -6.40869e-08 5.83327 -6.40869e-08C 2.61664 -6.40869e-08 1.475e-06 2.9316 1.475e-06 6.53333C 1.475e-06 9.06733 1.31749 11.3596 3.3333 12.4311L 3.3333 23.3333C 3.3333 23.6871 3.51163 24.01 3.79413 24.1687C 3.91162 24.234 4.03996 24.2667 4.16662 24.2667C 4.34329 24.2667 4.51912 24.2041 4.66662 24.08L 7.99992 21.28C 8.32241 21.0093 8.42491 20.5203 8.24491 20.1161L 7.59825 18.6667L 8.24491 17.2172C 8.36241 16.9549 8.36241 16.6451 8.24491 16.3819L 7.53909 14.8017L 7.92741 12.6261C 10.1532 11.6657 11.6665 9.2372 11.6665 6.53333ZM 6.97743 11.0171C 6.67743 11.1141 6.44993 11.3885 6.3891 11.732L 5.84994 14.7504C 5.81327 14.9539 5.83911 15.1648 5.9216 15.3515L 6.56827 16.8L 5.9216 18.2495C 5.80411 18.5117 5.80411 18.8216 5.9216 19.0848L 6.4441 20.2552L 4.99995 21.4667L 4.99995 11.8076C 4.99995 11.4119 4.77745 11.0591 4.44412 10.9284C 2.7833 10.2695 1.66665 8.50267 1.66665 6.53333C 1.66665 3.96013 3.5358 1.86667 5.83327 1.86667C 8.13075 1.86667 9.9999 3.96013 9.9999 6.53333C 9.9999 8.6044 8.75657 10.4477 6.97743 11.0171Z"/>
<path id="path3_fill" d="M 1.66665 0L 0 0L 0 1.86667L 1.66665 1.86667L 1.66665 0Z"/>
<path id="path4_fill" d="M 1.66665 0L 0 0L 0 1.86667L 1.66665 1.86667L 1.66665 0Z"/>
</defs>
</svg>
