<svg width="56" height="56" viewBox="0 0 56 56" version="1.1" xmlns="http://www.w3.org/2000/svg" xmlns:xlink="http://www.w3.org/1999/xlink">
<title>transparency</title>
<desc>Created using Figma</desc>
<g id="Canvas" transform="translate(-8219 -3099)">
<g id="transparency">
<g id="Group">
<g id="Group">
<g id="Group">
<g id="Vector">
<use xlink:href="#path0_fill" transform="translate(8240.32 3145.46)"/>
</g>
<g id="Vector">
<use xlink:href="#path1_fill" transform="translate(8263.86 3119.38)"/>
</g>
<g id="Vector">
<use xlink:href="#path2_fill" transform="translate(8270.65 3126.36)"/>
</g>
<g id="Vector">
<use xlink:href="#path3_fill" transform="translate(8247.92 3151.54)"/>
</g>
<g id="Vector">
<use xlink:href="#path4_fill" transform="translate(8219 3099)"/>
</g>
<g id="Vector">
<use xlink:href="#path5_fill" transform="translate(8271.9 3135.86)"/>
</g>
<g id="Vector">
<use xlink:href="#path6_fill" transform="translate(8266.43 3145.09)"/>
</g>
<g id="Vector">
<use xlink:href="#path7_fill" transform="translate(8257.57 3151.36)"/>
</g>
<g id="Vector">
<use xlink:href="#path8_fill" transform="translate(8223.92 3106.76)"/>
</g>
<g id="Vector">
<use xlink:href="#path9_fill" transform="translate(8233.33 3103.93)"/>
</g>
</g>
</g>
</g>
</g>
</g>
<defs>
<path id="path0_fill" d="M 5.16054 3.80187C 3.95366 2.83646 2.88422 1.71064 1.98196 0.455665C 1.62876 -0.0356468 0.94501 -0.147155 0.454601 0.206993C -0.0355894 0.560922 -0.146756 1.24619 0.206443 1.73751C 1.22512 3.15443 2.43254 4.42552 3.79512 5.5156C 3.99677 5.67688 4.23771 5.75517 4.47701 5.75517C 4.79848 5.75517 5.11688 5.61405 5.33287 5.3428C 5.70992 4.86958 5.63267 4.1797 5.16054 3.80187Z"/>
<path id="path1_fill" d="M 0.546651 2.04587C 1.88122 2.81907 3.10538 3.77308 4.18489 4.88135C 4.39935 5.1014 4.68362 5.21193 4.968 5.21193C 5.24362 5.21193 5.51935 5.10831 5.73216 4.9001C 6.16458 4.4771 6.1729 3.78294 5.75088 3.34952C 4.53175 2.09806 3.14948 1.02081 1.64203 0.147391C 1.11858 -0.155663 0.4496 0.0236035 0.147061 0.547699C -0.155369 1.07201 0.0236353 1.74281 0.546651 2.04587Z"/>
<path id="path2_fill" d="M 1.76489 5.93946C 1.88043 6.44809 2.33145 6.79281 2.83083 6.79281C 2.91115 6.79281 2.99277 6.78393 3.07461 6.76529C 3.66383 6.63087 4.03278 6.0434 3.89875 5.45286C 3.51195 3.74922 2.89145 2.10677 2.05462 0.571322C 1.7651 0.0397709 1.09996 -0.156053 0.570047 0.134502C 0.0395906 0.424618 -0.155611 1.09081 0.134126 1.62214C 0.874117 2.98029 1.42285 4.43285 1.76489 5.93946Z"/>
<path id="path3_fill" d="M 5.96939 1.27785C 4.43656 1.08751 2.93962 0.686548 1.51982 0.0864699C 0.962661 -0.148825 0.321258 0.112564 0.0863383 0.670539C -0.148581 1.22851 0.112379 1.87157 0.669205 2.10698C 2.27469 2.78556 3.96727 3.23882 5.70011 3.45405C 5.74585 3.45976 5.79126 3.4625 5.83612 3.4625C 6.38036 3.4625 6.85195 3.05594 6.92055 2.50081C 6.99507 1.89986 6.56911 1.3523 5.96939 1.27785Z"/>
<path id="path4_fill" d="M 42.4669 19.8979C 42.6154 19.3108 42.2609 18.7144 41.6753 18.5656C 40.4909 18.2647 39.2746 18.0805 38.0471 18.0125C 37.4935 7.98653 29.1798 1.09792e-09 19.0386 1.09792e-09C 8.54069 1.09792e-09 0 8.55832 0 19.0779C 0 29.2585 7.99897 37.6017 18.0299 38.129C 18.0005 38.2424 17.9879 38.3621 17.997 38.4855C 18.1259 40.2325 18.4932 41.949 19.0886 43.5872C 19.2505 44.0324 19.67 44.3087 20.1168 44.3087C 20.2411 44.3087 20.3676 44.2873 20.4912 44.2423C 21.0589 44.035 21.3516 43.4058 21.1449 42.8369C 20.6183 41.3881 20.2936 39.8696 20.1794 38.3238C 20.1743 38.2546 20.1621 38.1876 20.1451 38.1229C 29.7437 37.569 37.4579 29.8576 38.0406 20.2472L 38.0416 20.2482C 38.0425 20.2346 38.0438 20.221 38.0446 20.2074C 39.0913 20.2727 40.1279 20.4346 41.1376 20.6911C 41.7236 20.8401 42.3184 20.4847 42.4669 19.8979ZM 20.1705 35.9253C 20.7299 27.517 27.4604 20.7727 35.8514 20.212C 35.2918 28.6203 28.5614 35.3647 20.1705 35.9253ZM 17.9787 35.9306L 17.9775 35.9299C 9.17827 35.3798 2.18835 28.0315 2.18835 19.0779C 2.18835 9.76747 9.74735 2.19287 19.0386 2.19287C 27.9738 2.19287 35.3069 9.19721 35.8559 18.0146L 35.8566 18.0158C 26.254 18.5802 18.5419 26.3081 17.9787 35.9306Z"/>
<path id="path5_fill" d="M 2.05456 0.00145772C 1.44926 -0.0295713 0.937849 0.438277 0.908306 1.04318C 0.832918 2.59233 0.546351 4.11867 0.0571451 5.57967C -0.135101 6.15376 0.173457 6.77533 0.746367 6.96797C 0.861912 7.00679 0.979209 7.02521 1.09464 7.02521C 1.55201 7.02521 1.9783 6.73564 2.13181 6.27733C 2.68502 4.62545 3.0089 2.90032 3.09414 1.14997C 3.12368 0.545289 2.65822 0.0310614 2.05456 0.00145772Z"/>
<path id="path6_fill" d="M 5.00408 0.190991C 4.50481 -0.150439 3.82423 -0.0217179 3.48351 0.478256C 2.61375 1.75505 1.57297 2.90729 0.390275 3.90329C -0.0724521 4.29286 -0.132196 4.98449 0.256565 5.44806C 0.472993 5.70616 0.782754 5.83905 1.0947 5.83905C 1.34319 5.83905 1.5931 5.75462 1.79815 5.58193C 3.13348 4.45743 4.30851 3.15629 5.29075 1.7147C 5.63148 1.21462 5.50303 0.53242 5.00408 0.190991Z"/>
<path id="path7_fill" d="M 5.35135 0.0974342C 3.9461 0.734243 2.45944 1.17304 0.932414 1.40186C 0.334776 1.49133 -0.0772908 2.04952 0.0122127 2.64839C 0.0932911 3.19234 0.560177 3.58266 1.09293 3.58266C 1.14676 3.58266 1.20136 3.57872 1.25618 3.5705C 2.98268 3.31185 4.66388 2.81549 6.25295 2.09557C 6.80354 1.84614 7.0482 1.1965 6.79916 0.644774C 6.55013 0.0930489 5.90194 -0.151566 5.35135 0.0974342Z"/>
<path id="path8_fill" d="M 5.33695 0.238291C 1.94522 2.94034 0 6.97763 0 11.3151C 0 11.9206 0.489972 12.4116 1.09417 12.4116C 1.69838 12.4116 2.18835 11.9207 2.18835 11.3151C 2.18835 7.65007 3.83235 4.23841 6.69887 1.95476C 7.17188 1.57791 7.25055 0.888148 6.87437 0.414159C 6.49841 -0.0598286 5.81007 -0.138663 5.33695 0.238291Z"/>
<path id="path9_fill" d="M 4.70528 -1.33842e-08C 3.37531 -1.33842e-08 2.05858 0.185297 0.791635 0.550958C 0.210956 0.718493 -0.124189 1.32603 0.0430006 1.90801C 0.180976 2.38847 0.618535 2.70128 1.09385 2.70128C 1.19407 2.70128 1.29605 2.68736 1.39737 2.65819C 2.46736 2.34944 3.58036 2.19287 4.70528 2.19287C 5.30948 2.19287 5.79946 1.70188 5.79946 1.09643C 5.79946 0.490983 5.30948 -1.33842e-08 4.70528 -1.33842e-08Z"/>
</defs>
</svg>
