<svg width="27" height="22" viewBox="0 0 27 22" version="1.1" xmlns="http://www.w3.org/2000/svg" xmlns:xlink="http://www.w3.org/1999/xlink">
<title>Path</title>
<desc>Created using Figma</desc>
<g id="Canvas" transform="translate(-8256 -401)">
<g id="Path">
<use xlink:href="#path0_fill" transform="translate(8256.48 401)"/>
</g>
</g>
<defs>
<path id="path0_fill" fill-rule="evenodd" d="M 12.5969 5.85228L 12.6531 6.80383L 11.7159 6.68731C 8.3042 6.24066 5.32368 4.72595 2.79306 2.18201L 1.55587 0.919747L 1.23719 1.85188C 0.562361 3.92976 0.993504 6.12415 2.39941 7.60002C 3.14922 8.41564 2.98051 8.53216 1.68708 8.04667C 1.23719 7.89131 0.843541 7.7748 0.806051 7.83306C 0.674833 7.96899 1.12472 9.73616 1.48088 10.4353C 1.96826 11.4062 2.96177 12.3578 4.049 12.9209L 4.96752 13.3676L 3.88029 13.387C 2.83055 13.387 2.79306 13.4064 2.90553 13.8142C 3.28044 15.0765 4.76132 16.4164 6.41091 16.999L 7.57313 17.4068L 6.56088 18.0282C 5.06125 18.9215 3.29918 19.4264 1.53712 19.4653C 0.693578 19.4847 0 19.5624 0 19.6206C 0 19.8148 2.28693 20.9023 3.61786 21.3295C 7.61062 22.5918 12.3532 22.0481 15.9148 19.8925C 18.4454 18.3584 20.9761 15.3095 22.157 12.3578C 22.7944 10.7848 23.4317 7.91073 23.4317 6.53196C 23.4317 5.63866 23.4879 5.52215 24.5377 4.45408C 25.1563 3.83266 25.7374 3.15298 25.8499 2.95878C 26.0373 2.58982 26.0186 2.58982 25.0626 2.91995C 23.4692 3.50253 23.2443 3.42485 24.0316 2.55098C 24.6127 1.92956 25.3062 0.80323 25.3062 0.4731C 25.3062 0.414842 25.0251 0.511939 24.7064 0.686714C 24.369 0.880908 23.6192 1.1722 23.0568 1.34697L 22.0445 1.6771L 21.126 1.03626C 20.6199 0.686714 19.9076 0.298326 19.5327 0.181809C 18.5767 -0.0900623 17.1145 -0.0512235 16.2522 0.259487C 13.9091 1.13336 12.4282 3.38601 12.5969 5.85228Z"/>
</defs>
</svg>
