<svg width="49" height="56" viewBox="0 0 49 56" version="1.1" xmlns="http://www.w3.org/2000/svg" xmlns:xlink="http://www.w3.org/1999/xlink">
<title>vote</title>
<desc>Created using Figma</desc>
<g id="Canvas" transform="translate(-7917 -3099)">
<g id="vote">
<g id="Group">
<g id="Group">
<g id="Vector">
<use xlink:href="#path0_fill" transform="translate(7917 3099)"/>
</g>
</g>
</g>
<g id="Group">
<g id="Group">
<g id="Vector">
<use xlink:href="#path1_fill" transform="translate(7943.48 3122.83)"/>
</g>
</g>
</g>
<g id="Group">
<g id="Group">
<g id="Vector">
<use xlink:href="#path2_fill" transform="translate(7931.86 3116.83)"/>
</g>
</g>
</g>
<g id="Group">
<g id="Group">
<g id="Vector">
<use xlink:href="#path3_fill" transform="translate(7926.3 3138.27)"/>
</g>
</g>
</g>
</g>
</g>
<defs>
<path id="path0_fill" d="M 48.0088 32.446L 40.2853 32.446L 40.2853 18.9225C 40.2853 18.3184 39.8414 17.8288 39.2941 17.8288L 31.6782 17.8288L 24.8796 10.3268C 23.7989 9.13432 22.2491 8.55354 20.734 8.77295L 16.6739 9.36105C 16.7588 8.99837 16.6737 8.59718 16.4163 8.31313L 14.1635 5.82726C 14.1201 5.74304 14.0672 5.6644 14.0039 5.59462L 9.22424 0.320332C 8.83718 -0.106777 8.20956 -0.106777 7.82251 0.320332L 0.290293 8.63196C -0.0967644 9.05907 -0.0967644 9.75163 0.290293 10.1787L 12.7606 23.9395C 13.7313 25.0107 15.0217 25.6072 16.3942 25.6192L 22.235 25.6712L 22.235 32.446L 2.73981 32.446C 2.19238 32.446 1.74862 32.9356 1.74862 33.5397L 1.74862 54.9062C 1.74862 55.5103 2.19238 56 2.73981 56L 48.0088 56C 48.5562 56 49 55.5103 49 54.9062L 49 33.5397C 49 32.9356 48.5561 32.446 48.0088 32.446ZM 38.3028 20.0168L 38.3028 39.2656L 24.2174 39.2656L 24.2174 25.628C 24.2411 25.6235 24.2643 25.6179 24.2879 25.613C 24.3093 25.6085 24.3307 25.6042 24.352 25.5993C 24.3886 25.5908 24.4248 25.5813 24.4609 25.5715C 24.4791 25.5666 24.4974 25.5622 24.5155 25.5571C 24.5637 25.5432 24.6115 25.5281 24.659 25.512C 24.6645 25.5102 24.6702 25.5086 24.6757 25.5067C 24.7288 25.4884 24.7812 25.4686 24.8331 25.4477C 24.8485 25.4415 24.8636 25.4346 24.8789 25.4281C 24.9152 25.4129 24.9513 25.3975 24.987 25.3811C 25.0061 25.3723 25.0248 25.3628 25.0438 25.3537C 25.0752 25.3385 25.1064 25.3231 25.1373 25.3068C 25.1573 25.2963 25.1771 25.2854 25.1969 25.2745C 25.2261 25.2584 25.2553 25.2421 25.2841 25.2251C 25.3041 25.2133 25.3241 25.2013 25.3439 25.189C 25.372 25.1718 25.3999 25.154 25.4275 25.1359C 25.4471 25.1231 25.4665 25.1103 25.4857 25.0971C 25.5133 25.0783 25.5404 25.0588 25.5675 25.0392C 25.586 25.0257 25.6046 25.0124 25.6229 24.9985C 25.6507 24.9775 25.6779 24.9558 25.7051 24.934C 25.7218 24.9205 25.7388 24.9074 25.7552 24.8936C 25.7857 24.8682 25.8154 24.8421 25.845 24.8158C 25.8575 24.8046 25.8704 24.7939 25.8828 24.7826C 25.9245 24.7444 25.9655 24.7054 26.0055 24.6653C 26.0115 24.6591 26.0174 24.6527 26.0234 24.6465C 26.0572 24.6122 26.0905 24.5774 26.1231 24.5418C 26.1364 24.5271 26.1493 24.5118 26.1625 24.4969C 26.1871 24.469 26.2116 24.4411 26.2355 24.4125C 26.2501 24.3949 26.2642 24.3769 26.2786 24.359C 26.3002 24.3321 26.3217 24.305 26.3426 24.2774C 26.3572 24.2583 26.3713 24.2389 26.3855 24.2194C 26.4055 24.1921 26.4253 24.1645 26.4446 24.1365C 26.4585 24.1165 26.4721 24.0963 26.4856 24.0759C 26.5045 24.0476 26.5229 24.019 26.541 23.99C 26.5539 23.9694 26.5668 23.9488 26.5794 23.928C 26.5974 23.8981 26.6149 23.8678 26.6321 23.8373C 26.6438 23.8167 26.6556 23.7963 26.6669 23.7755C 26.6848 23.7428 26.7018 23.7094 26.7188 23.6762C 26.7285 23.657 26.7386 23.6381 26.748 23.6189C 26.7681 23.5777 26.7872 23.5358 26.8061 23.4938C 26.8114 23.4818 26.8173 23.4701 26.8225 23.458C 26.8462 23.4037 26.8688 23.3487 26.8902 23.293C 26.8961 23.2778 26.9013 23.2622 26.9071 23.2468C 26.9222 23.206 26.9372 23.1651 26.9512 23.1236C 26.9583 23.1024 26.9648 23.081 26.9716 23.0595C 26.9831 23.0233 26.9945 22.9871 27.0051 22.9505C 27.0119 22.9268 27.0182 22.903 27.0246 22.8792C 27.034 22.8442 27.0433 22.8089 27.0519 22.7735C 27.0579 22.7487 27.0636 22.7236 27.0691 22.6986C 27.077 22.6635 27.0844 22.6284 27.0913 22.5929C 27.0964 22.5673 27.1012 22.5417 27.1057 22.516C 27.1121 22.4802 27.1178 22.4441 27.1233 22.4079C 27.1271 22.3824 27.131 22.357 27.1344 22.3314C 27.1393 22.2937 27.1435 22.2556 27.1475 22.2175C 27.1501 22.193 27.153 22.1688 27.1552 22.1442C 27.1588 22.102 27.1615 22.0596 27.164 22.0171C 27.1652 21.9963 27.167 21.9756 27.1679 21.9547C 27.1706 21.8912 27.1722 21.8273 27.1722 21.763L 27.1722 21.7501C 27.1722 21.6769 27.17 21.6044 27.1665 21.5323C 27.1653 21.5088 27.1632 21.4856 27.1616 21.4623C 27.1584 21.4137 27.1549 21.3652 27.15 21.3172C 27.1473 21.29 27.1439 21.263 27.1407 21.2361C 27.1354 21.192 27.1298 21.1481 27.1232 21.1044C 27.119 21.0768 27.1144 21.0492 27.1098 21.0217C 27.1024 20.9789 27.0944 20.9363 27.0859 20.894C 27.0804 20.8671 27.075 20.8403 27.069 20.8136C 27.0593 20.77 27.0486 20.7269 27.0376 20.6838C 27.0314 20.6595 27.0254 20.635 27.0188 20.6109C 27.0052 20.5618 26.9904 20.5133 26.9752 20.4649C 26.9697 20.4477 26.965 20.4302 26.9593 20.4132C 26.9378 20.348 26.9149 20.2837 26.8904 20.2201C 26.8857 20.2077 26.8802 20.1956 26.8753 20.1833C 26.8551 20.1326 26.8344 20.0823 26.8124 20.0328C 26.8101 20.0275 26.8082 20.0221 26.8058 20.0168L 38.3028 20.0168ZM 2.39299 9.40535L 8.52337 2.64051L 11.9014 6.36801L 5.77095 13.133L 2.39299 9.40535ZM 7.17269 14.6799L 13.2776 7.94312L 14.3137 9.08652L 8.20877 15.8232L 7.17269 14.6799ZM 16.4101 23.4317C 15.5611 23.4244 14.7629 23.0554 14.1624 22.3927L 9.6106 17.3698L 11.1679 15.6514L 14.5964 11.8682L 20.9921 10.9417C 21.9005 10.8102 22.8299 11.1584 23.478 11.8735L 28.8747 17.8285L 23.6191 17.8285L 19.7611 17.8285C 19.2137 17.8285 18.7699 18.3182 18.7699 18.9223C 18.7699 19.5264 19.2137 20.016 19.7611 20.016L 23.619 20.016C 24.4852 20.016 25.19 20.7937 25.19 21.7495L 25.19 21.7624C 25.19 22.0611 25.1212 22.3425 25.0003 22.588C 24.7345 23.1283 24.2171 23.4959 23.6271 23.4959L 16.4101 23.4317ZM 3.73099 34.6335L 22.235 34.6335L 22.235 39.2656L 13.7594 39.2656C 13.212 39.2656 12.7682 39.7553 12.7682 40.3594C 12.7682 40.9634 13.212 41.4531 13.7594 41.4531L 23.2262 41.4531L 39.294 41.4531L 40.461 41.4531C 41.0084 41.4531 41.4522 40.9634 41.4522 40.3594C 41.4522 39.7553 41.0084 39.2656 40.461 39.2656L 40.2852 39.2656L 40.2852 34.6335L 47.0175 34.6335L 47.0175 47.5914L 3.73099 47.5914L 3.73099 34.6335ZM 47.0176 53.8125L 3.73099 53.8125L 3.73099 49.7789L 47.0176 49.7789L 47.0176 53.8125Z"/>
<path id="path1_fill" d="M 9.72485 0.178671C 9.26653 -0.152188 8.65239 -0.010329 8.35265 0.494984L 4.55186 6.90458L 1.61686 4.26853C 1.19243 3.88736 0.567987 3.95791 0.22246 4.42636C -0.123067 4.89481 -0.0590376 5.58377 0.365487 5.96505L 4.1534 9.36727C 4.33132 9.52707 4.55265 9.61271 4.77914 9.61271C 4.82979 9.61271 4.88054 9.60844 4.93128 9.59969C 5.20872 9.55211 5.45473 9.377 5.60856 9.11778L 10.0116 1.69275C 10.3112 1.18722 10.1829 0.509421 9.72485 0.178671Z"/>
<path id="path2_fill" d="M 1.96354 0.879923C 1.95065 0.809923 1.93182 0.742109 1.90704 0.67539C 1.88226 0.609765 1.85153 0.546329 1.81585 0.487267C 1.77918 0.42711 1.73854 0.371327 1.69195 0.319921C 1.64636 0.269609 1.59581 0.224766 1.54129 0.184297C 1.48777 0.144922 1.43028 0.111016 1.37081 0.0836724C 1.31035 0.0563286 1.24889 0.0355466 1.18546 0.0213278C 1.05759 -0.00710971 0.925766 -0.00710971 0.797903 0.0213278C 0.734468 0.0355466 0.672023 0.0563286 0.612552 0.0836724C 0.55209 0.111016 0.494602 0.144922 0.441078 0.184297C 0.386563 0.224766 0.336012 0.269609 0.290417 0.319921C 0.244823 0.371327 0.203192 0.42711 0.16751 0.487267C 0.131827 0.546329 0.1011 0.609765 0.0763208 0.67539C 0.0515412 0.742109 0.0327095 0.809923 0.0198241 0.879923C 0.00693866 0.951016 6.65468e-07 1.02211 6.65468e-07 1.0943C 6.65468e-07 1.16539 0.00693866 1.23758 0.0198241 1.30758C 0.0327095 1.37758 0.0515412 1.44649 0.0763208 1.51211C 0.1011 1.57774 0.131827 1.64117 0.16751 1.70133C 0.203192 1.76039 0.244823 1.81716 0.290417 1.86758C 0.336012 1.91789 0.386563 1.96383 0.441078 2.00321C 0.494602 2.04258 0.55209 2.07649 0.612552 2.10383C 0.672023 2.13117 0.734468 2.15195 0.797903 2.16617C 0.861339 2.18039 0.926759 2.18805 0.991186 2.18805C 1.0566 2.18805 1.12103 2.18039 1.18546 2.16617C 1.24889 2.15195 1.31035 2.13117 1.37081 2.10383C 1.43028 2.07649 1.48777 2.04258 1.54129 2.00321C 1.59581 1.96383 1.64636 1.91789 1.69195 1.86758C 1.73854 1.81716 1.77918 1.76039 1.81585 1.70133C 1.85153 1.64117 1.88226 1.57774 1.90704 1.51211C 1.93182 1.44649 1.95065 1.37758 1.96354 1.30758C 1.97642 1.23758 1.98237 1.16539 1.98237 1.0943C 1.98237 1.02211 1.97642 0.951016 1.96354 0.879923Z"/>
<path id="path3_fill" d="M 1.96255 0.879921C 1.95065 0.809921 1.93083 0.741015 1.90605 0.67539C 1.88127 0.608671 1.85054 0.545236 1.81486 0.486173C 1.77918 0.426017 1.73755 0.370234 1.69195 0.319921C 1.64636 0.269609 1.59581 0.223672 1.54129 0.184297C 1.48777 0.144922 1.43028 0.111014 1.36982 0.0836707C 1.31035 0.056327 1.2479 0.0355482 1.18447 0.0213295C 1.0566 -0.00710804 0.925767 -0.00710804 0.797904 0.0213295C 0.734469 0.0355482 0.672024 0.056327 0.612552 0.0836707C 0.55209 0.111014 0.494601 0.144922 0.441077 0.184297C 0.386562 0.223672 0.336012 0.269609 0.290417 0.319921C 0.244823 0.370234 0.203193 0.426017 0.167511 0.486173C 0.131828 0.545236 0.101101 0.608671 0.076321 0.67539C 0.0515413 0.741015 0.0327089 0.809921 0.0198235 0.879921C 0.00693805 0.949921 6.04971e-08 1.02211 6.04971e-08 1.0932C 6.04971e-08 1.1643 0.00693805 1.23649 0.0198235 1.30649C 0.0327089 1.37649 0.0515413 1.44539 0.076321 1.51211C 0.101101 1.57773 0.131828 1.64117 0.167511 1.70023C 0.203193 1.76039 0.244823 1.81617 0.290417 1.86649C 0.336012 1.9168 0.386562 1.96274 0.441077 2.00211C 0.494502 2.04149 0.55209 2.07539 0.612552 2.10274C 0.672024 2.13008 0.734469 2.15195 0.797904 2.16508C 0.86134 2.1793 0.926758 2.18695 0.991185 2.18695C 1.25187 2.18695 1.50759 2.06992 1.69195 1.86649C 1.73755 1.81617 1.77918 1.76039 1.81486 1.70023C 1.85054 1.64117 1.88127 1.57773 1.90605 1.51211C 1.93083 1.44539 1.95065 1.37649 1.96255 1.30649C 1.97543 1.23649 1.98237 1.1643 1.98237 1.0932C 1.98237 1.02211 1.97543 0.949921 1.96255 0.879921Z"/>
</defs>
</svg>
